<svg width="1024" height="1024" viewBox="0 0 1024 1024" xmlns="http://www.w3.org/2000/svg">
  <defs>
    <linearGradient id="bg" x1="0" y1="0" x2="1" y2="1">
      <stop offset="0" stop-color="#5B8CFF"/>
      <stop offset="1" stop-color="#7B5CFF"/>
    </linearGradient>
  </defs>

  <!-- 圆角方形底（四周留白，内容约占 80%，对齐标准 macOS 图标网格） -->
  <rect x="100" y="100" width="824" height="824" rx="185" ry="185" fill="url(#bg)"/>

  <!-- 后层文档（多文档聚合） -->
  <rect x="316" y="296" width="340" height="380" rx="38" ry="38" fill="#FFFFFF" opacity="0.47"/>
  <!-- 前层文档 -->
  <rect x="342" y="322" width="340" height="380" rx="38" ry="38" fill="#FFFFFF"/>

  <!-- 文本行 -->
  <rect x="382" y="392" width="250" height="20" rx="10" fill="#B0C4FF"/>
  <rect x="382" y="432" width="205" height="20" rx="10" fill="#B0C4FF"/>
  <rect x="382" y="472" width="250" height="20" rx="10" fill="#D6DFFF"/>
  <rect x="382" y="512" width="150" height="20" rx="10" fill="#D6DFFF"/>

  <!-- AI 星芒（主） -->
  <path d="M600 546 L618.4 613.6 L686 632 L618.4 650.4 L600 718 L581.6 650.4 L514 632 L581.6 613.6 Z" fill="#FBB03B"/>
  <circle cx="600" cy="632" r="15" fill="#FFFFFF" opacity="0.92"/>
  <!-- AI 星芒（副） -->
  <path d="M666 486 L673.8 512.2 L700 520 L673.8 527.8 L666 554 L658.2 527.8 L632 520 L658.2 512.2 Z" fill="#FBB03B"/>
</svg>
